<svg id="Layer_1" data-name="Layer 1" xmlns="http://www.w3.org/2000/svg" viewBox="0 0 16.2 16.17"><title>icon_send</title><path d="M14,.17a1.42,1.42,0,0,1,1.1-.1,1.46,1.46,0,0,1,.9.6,1.39,1.39,0,0,1,.2,1.1L14.27,14a1.48,1.48,0,0,1-.8,1.1,1.85,1.85,0,0,1-.7.2,1.27,1.27,0,0,1-.6-.1l-3.5-1.5-1.4,1.9a1.74,1.74,0,0,1-1.1.6,1.5,1.5,0,0,1-1.1-.4,1.61,1.61,0,0,1-.5-1.1v-2.6L1,10.57c-.4-.1-.6-.4-.8-.8a1.42,1.42,0,0,1-.1-1.1,1.27,1.27,0,0,1,.7-.9Zm-1.1,13.5,1.9-12.2L1.67,9l3.4,1.4,6.6-5.8a.44.44,0,0,1,.5-.1q.3.15.3.3c.1.2,0,.3-.1.5L8,11.67Zm-6.7.9L7.37,13l-1.2-.5Z" style="fill:#fff"/></svg>