<svg id="Layer_1" data-name="Layer 1" xmlns="http://www.w3.org/2000/svg" viewBox="0 0 318 318"><title>icon_download</title><path d="M127,211.1c9.7,9.7,17,22,33.9,24.5,15.4,2.3,24.5-12.7,31.5-19.8q32.85-32.7,65.8-65.4c7.2-7.2,18.8-18,12.8-33.9-4.5-11.9-19.8-23.3-36.6-16.1-6.1,2.6-10.4,8-14.8,12.4-10.2,10.1-20.4,20.1-30.5,30.2V62.1c0-34.3,4.5-61.5-31.2-61.1-9.5,4.4-16.8,6.4-20.8,16.1s-2,27.4-2,40.3V143c-10-9.8-19.9-19.7-29.9-29.5-4.1-4.1-7.8-9-13.4-11.4-16.2-7-31.5,3.6-36.2,14.8-6.4,15.1,3.7,26.9,10.7,33.9Q96.6,180.8,127,211.1Zm187.9,2.3c-4.1-10.6-17.3-21.2-33.2-16.4-9.8,2.9-17.2,11.2-19.1,22.1-2.5,14.3,4,32.2-5.4,39.3-7.5,5.6-35.8,3-49,3l-141.6-.3c-16.6-4.1-7.8-25.6-11.1-43C53,205,42.8,196.2,27.3,196c-11.8,4.7-18.4,4.3-23.5,16.1-2.5,5.7-2,14.3-2,22.5,0,30.1,5.6,45.5,19.5,60.7,22.4,24.6,61.4,20.1,107.7,20.1h90c16.3,0,35.4,1.5,48.3-2.3,23.2-7,41.2-24.7,47.3-48.7C317.3,253.9,319,223.8,314.9,213.4Z" style="fill:#fff"/><path d="M21.3,197c-9.8,2.9-17.2,11.2-19.1,22.1l52.4-5.7C50.4,202.8,37.2,192.2,21.3,197Z" style="fill:#fff"/><path d="M153.8,2.1C144.2,5,137,13.3,135.1,24.2l51.2-5.7C182.3,8,169.4-2.6,153.8,2.1Z" style="fill:#fff"/></svg>