<svg id="Layer_1" data-name="Layer 1" xmlns="http://www.w3.org/2000/svg" viewBox="0 0 13.13 13.63"><title>icon_sun</title><path d="M5.13,11.73a.12.12,0,0,0-.06-.06.12.12,0,0,0-.09,0l-1.15.72a.92.92,0,0,1-.77.12,1.06,1.06,0,0,1-.6-.45.9.9,0,0,1-.12-.74L2.64,10a.09.09,0,0,0,0-.09.09.09,0,0,0-.08,0l-1.38-.1a.89.89,0,0,1-.67-.35,1,1,0,0,1-.23-.73A.9.9,0,0,1,.62,8l1.05-.9a.13.13,0,0,0,0-.15L.62,6.06A.9.9,0,0,1,.28,5.4a1,1,0,0,1,.23-.73.89.89,0,0,1,.67-.35l1.38-.1a.08.08,0,0,0,.08-.13L2.33,2.76A.9.9,0,0,1,2.45,2a1.06,1.06,0,0,1,.6-.45.92.92,0,0,1,.77.12L5,2.4a.12.12,0,0,0,.09,0,.12.12,0,0,0,.06-.06l.51-1.26A.93.93,0,0,1,6.18.55a1,1,0,0,1,.77,0,.93.93,0,0,1,.54.54L8,2.35a.12.12,0,0,0,.06.06.12.12,0,0,0,.09,0l1.15-.72a.92.92,0,0,1,.77-.12,1.06,1.06,0,0,1,.6.45.9.9,0,0,1,.12.74l-.31,1.33a.08.08,0,0,0,.08.13l1.36.1a.91.91,0,0,1,.69.35,1,1,0,0,1,.23.73.9.9,0,0,1-.33.67L11.46,7a.08.08,0,0,0,0,.15l1.05.9a.9.9,0,0,1,.33.67,1,1,0,0,1-.23.73.91.91,0,0,1-.69.35l-1.36.1a.09.09,0,0,0-.08,0,.09.09,0,0,0,0,.09l.31,1.33a.9.9,0,0,1-.12.74,1.06,1.06,0,0,1-.6.45.92.92,0,0,1-.77-.12l-1.15-.72a.12.12,0,0,0-.09,0,.12.12,0,0,0-.06.06L7.49,13a.93.93,0,0,1-.54.54,1,1,0,0,1-.77,0A.93.93,0,0,1,5.64,13Zm1.44.79L7,11.32a1.12,1.12,0,0,1,1.64-.51l1.1.67-.31-1.26a1.08,1.08,0,0,1,.18-.94,1,1,0,0,1,.82-.45l1.31-.1-1-.82a1.13,1.13,0,0,1,0-1.74l1-.82-1.31-.1a1,1,0,0,1-.82-.45,1.08,1.08,0,0,1-.18-.94L9.79,2.6l-1.1.67a1,1,0,0,1-.94.12A1.12,1.12,0,0,1,7,2.76l-.49-1.2-.49,1.2a1.12,1.12,0,0,1-1.64.51L3.33,2.6l.31,1.26a1.08,1.08,0,0,1-.18.94,1,1,0,0,1-.82.45l-1.31.1,1,.82a1.08,1.08,0,0,1,.4.87,1.19,1.19,0,0,1-.4.87l-1,.82,1.31.1a1,1,0,0,1,.82.45,1.08,1.08,0,0,1,.18.94l-.31,1.26,1.1-.67a1,1,0,0,1,.94-.12,1.12,1.12,0,0,1,.71.63ZM4.91,9.88A3.2,3.2,0,0,1,3.72,8.69a3.36,3.36,0,0,1,0-3.31A3.2,3.2,0,0,1,4.91,4.19a3.36,3.36,0,0,1,3.31,0A3.2,3.2,0,0,1,9.41,5.39a3.36,3.36,0,0,1,0,3.31A3.2,3.2,0,0,1,8.22,9.88a3.36,3.36,0,0,1-3.31,0Zm.21-4.29a2,2,0,0,0,0,2.9,2,2,0,0,0,2.9,0,2,2,0,0,0,0-2.9,2,2,0,0,0-2.9,0Z" style="fill:#1079ac"/></svg>