<svg id="Layer_1" data-name="Layer 1" xmlns="http://www.w3.org/2000/svg" viewBox="0 0 11.48 13.13"><title>icon_calendar</title><path d="M11.48,11.89a1.23,1.23,0,0,1-1.23,1.23h-9a1.18,1.18,0,0,1-.87-.36A1.18,1.18,0,0,1,0,11.89v-9A1.18,1.18,0,0,1,.36,2a1.18,1.18,0,0,1,.87-.36H2.46V.31A.3.3,0,0,1,2.55.09.3.3,0,0,1,2.77,0h1A.3.3,0,0,1,4,.09.3.3,0,0,1,4.1.31V1.64H7.38V.31A.3.3,0,0,1,7.47.09.3.3,0,0,1,7.69,0h1a.3.3,0,0,1,.22.09A.3.3,0,0,1,9,.31V1.64h1.23a1.23,1.23,0,0,1,1.23,1.23ZM10.25,4.1h-9v7.64a.18.18,0,0,0,.15.15H10.1a.18.18,0,0,0,.15-.15ZM2.77,7.38a.31.31,0,0,1-.31-.31V6a.31.31,0,0,1,.31-.31h1A.31.31,0,0,1,4.1,6v1a.31.31,0,0,1-.31.31ZM4.1,8.51A.3.3,0,0,0,4,8.29a.29.29,0,0,0-.22-.09h-1a.29.29,0,0,0-.22.09.3.3,0,0,0-.09.22v1a.3.3,0,0,0,.09.22.29.29,0,0,0,.22.09h1A.29.29,0,0,0,4,9.75a.3.3,0,0,0,.09-.22ZM6.56,6a.31.31,0,0,0-.31-.31h-1A.31.31,0,0,0,4.92,6v1a.31.31,0,0,0,.31.31h1a.31.31,0,0,0,.31-.31Zm0,2.46a.3.3,0,0,0-.09-.22.29.29,0,0,0-.22-.09h-1A.29.29,0,0,0,5,8.29a.3.3,0,0,0-.09.22v1A.3.3,0,0,0,5,9.75a.29.29,0,0,0,.22.09h1a.29.29,0,0,0,.22-.09.3.3,0,0,0,.09-.22ZM9,6a.31.31,0,0,0-.31-.31h-1A.31.31,0,0,0,7.38,6v1a.31.31,0,0,0,.31.31h1A.31.31,0,0,0,9,7.08ZM9,8.51a.3.3,0,0,0-.09-.22.29.29,0,0,0-.22-.09h-1a.29.29,0,0,0-.22.09.3.3,0,0,0-.09.22v1a.3.3,0,0,0,.09.22.29.29,0,0,0,.22.09h1a.29.29,0,0,0,.22-.09A.3.3,0,0,0,9,9.54Z" style="fill:#1079ac"/></svg>