<svg id="Layer_1" data-name="Layer 1" xmlns="http://www.w3.org/2000/svg" viewBox="0 0 34.56 38"><title>icon_moon</title><path d="M19,38a18.58,18.58,0,0,1-9.5-2.6,19,19,0,0,1-6.9-6.9,18.66,18.66,0,0,1,0-19A19,19,0,0,1,9.5,2.6,18.84,18.84,0,0,1,22.4.3a3.2,3.2,0,0,1,2.4,1.6,4,4,0,0,1,.5,2.8,3.16,3.16,0,0,1-1.7,2.2,10.63,10.63,0,0,0-3.7,3.6A9.69,9.69,0,0,0,20.2,21a10.34,10.34,0,0,0,4.4,3.6,9.48,9.48,0,0,0,5.8.6,3.17,3.17,0,0,1,2.7.6,3.34,3.34,0,0,1,1.4,2.4,3,3,0,0,1-.8,2.7,19.19,19.19,0,0,1-6.5,5.2A18,18,0,0,1,19,38ZM19,3.5a14.86,14.86,0,0,0-7.7,2.1,15,15,0,0,0-5.6,5.6A15,15,0,0,0,3.6,19a15,15,0,0,0,2.1,7.8,15.81,15.81,0,0,0,5.6,5.6A14.6,14.6,0,0,0,19,34.5,15.28,15.28,0,0,0,25.7,33,14.56,14.56,0,0,0,31,28.8a13.83,13.83,0,0,1-7.8-.8,13.44,13.44,0,0,1-8.3-12.4,12.24,12.24,0,0,1,1.9-6.8,14.65,14.65,0,0,1,5-4.9A9,9,0,0,0,19,3.5Z" style="fill:#1079ac"/></svg>